<svg width="100" height="100" viewBox="0 0 100 100" fill="none" xmlns="http://www.w3.org/2000/svg">
<circle cx="50" cy="50" r="50" fill="#012842"/>
<path d="M14.3438 44.0938V61H11.4375V44.0938H14.3438ZM11.2188 39.6094C11.2188 39.1406 11.3594 38.7448 11.6406 38.4219C11.9323 38.099 12.3594 37.9375 12.9219 37.9375C13.474 37.9375 13.8958 38.099 14.1875 38.4219C14.4896 38.7448 14.6406 39.1406 14.6406 39.6094C14.6406 40.0573 14.4896 40.4427 14.1875 40.7656C13.8958 41.0781 13.474 41.2344 12.9219 41.2344C12.3594 41.2344 11.9323 41.0781 11.6406 40.7656C11.3594 40.4427 11.2188 40.0573 11.2188 39.6094Z" fill="#CD2253"/>
<path d="M33.1562 53.7656H36.1562C36 55.2031 35.5885 56.4896 34.9219 57.625C34.2552 58.7604 33.3125 59.6615 32.0938 60.3281C30.875 60.9844 29.3542 61.3125 27.5312 61.3125C26.1979 61.3125 24.9844 61.0625 23.8906 60.5625C22.8073 60.0625 21.875 59.3542 21.0938 58.4375C20.3125 57.5104 19.7083 56.401 19.2812 55.1094C18.8646 53.8073 18.6562 52.3594 18.6562 50.7656V48.5C18.6562 46.9062 18.8646 45.4635 19.2812 44.1719C19.7083 42.8698 20.3177 41.7552 21.1094 40.8281C21.9115 39.901 22.875 39.1875 24 38.6875C25.125 38.1875 26.3906 37.9375 27.7969 37.9375C29.5156 37.9375 30.9688 38.2604 32.1562 38.9062C33.3438 39.5521 34.2656 40.4479 34.9219 41.5938C35.5885 42.7292 36 44.0469 36.1562 45.5469H33.1562C33.0104 44.4844 32.7396 43.5729 32.3438 42.8125C31.9479 42.0417 31.3854 41.4479 30.6562 41.0312C29.9271 40.6146 28.974 40.4062 27.7969 40.4062C26.7865 40.4062 25.8958 40.599 25.125 40.9844C24.3646 41.3698 23.724 41.9167 23.2031 42.625C22.6927 43.3333 22.3073 44.1823 22.0469 45.1719C21.7865 46.1615 21.6562 47.2604 21.6562 48.4688V50.7656C21.6562 51.8802 21.7708 52.9271 22 53.9062C22.2396 54.8854 22.599 55.7448 23.0781 56.4844C23.5573 57.224 24.1667 57.8073 24.9062 58.2344C25.6458 58.651 26.5208 58.8594 27.5312 58.8594C28.8125 58.8594 29.8333 58.6562 30.5938 58.25C31.3542 57.8438 31.9271 57.2604 32.3125 56.5C32.7083 55.7396 32.9896 54.8281 33.1562 53.7656ZM53.2812 38.25H56.2812V53.6406C56.2812 55.349 55.901 56.7708 55.1406 57.9062C54.3802 59.0417 53.3698 59.8958 52.1094 60.4688C50.8594 61.0312 49.5 61.3125 48.0312 61.3125C46.4896 61.3125 45.0938 61.0312 43.8438 60.4688C42.6042 59.8958 41.6198 59.0417 40.8906 57.9062C40.1719 56.7708 39.8125 55.349 39.8125 53.6406V38.25H42.7969V53.6406C42.7969 54.8281 43.0156 55.8073 43.4531 56.5781C43.8906 57.349 44.5 57.9219 45.2812 58.2969C46.0729 58.6719 46.9896 58.8594 48.0312 58.8594C49.0833 58.8594 50 58.6719 50.7812 58.2969C51.5729 57.9219 52.1875 57.349 52.625 56.5781C53.0625 55.8073 53.2812 54.8281 53.2812 53.6406V38.25ZM71.5938 51.125L60.4844 46.7969V43.8125L73.8281 49.7188V51.5469L71.5938 51.125ZM60.4844 54.9375L71.625 50.5156L73.8281 50.1875V52L60.4844 57.9219V54.9375ZM88.3438 51.125L77.2344 46.7969V43.8125L90.5781 49.7188V51.5469L88.3438 51.125ZM77.2344 54.9375L88.375 50.5156L90.5781 50.1875V52L77.2344 57.9219V54.9375Z" fill="#EFF4F8"/>
</svg>
